<svg fill="none" height="149" viewBox="0 0 219 149" width="219" xmlns="http://www.w3.org/2000/svg" xmlns:xlink="http://www.w3.org/1999/xlink"><radialGradient id="a" cx="0" cy="0" gradientTransform="matrix(-78.596 0 -0 -41.6107 109.5 73.3799)" gradientUnits="userSpaceOnUse" r="1"><stop offset="0" stop-color="#fff"/><stop offset="1" stop-color="#bfbfbf"/></radialGradient><path d="m219 72.2377c0 35.6413-49.025 64.5343-109.5 64.5343-60.4752 0-109.5-28.893-109.5-64.5343 0-35.6414 49.0248-64.53439 109.5-64.53439 60.475 0 109.5 28.89299 109.5 64.53439z" fill="#333"/><path d="m192.293 73.3799c0 21.9736-37.068 39.7871-82.793 39.7871-45.7249 0-82.7925-17.8135-82.7925-39.7871 0-21.9735 37.0676-39.7867 82.7925-39.7867 45.725 0 82.793 17.8132 82.793 39.7867z" fill="url(#a)"/><path clip-rule="evenodd" d="m140.334.072477c.756-.177635 1.721-.0167191 2.382.351361.415.592892-.414.620412-.444 1.126962.976.25916 1.971-.750126 2.816-1.006124 1.343-.406903 3.433.144565 4.055 1.215074.429.74054-.272 2.32918-.545 3.14998.382-.37618.72-.73203 1.065-1.11878.291-.3269.567-1.06848.992-1.04292 4.07.24623 3.58 4.24571 3.016 6.53568.376-.71426.733-1.43543 1.072-2.16171.878 2.45608 1.043 4.8292-.678 7.1997-.476.6542-.498.6838-1.055.779-.196.1319-.206.0951-.397.4759-.19.3807-.19.3807-.19.5711 0 .1903-.052.7046 0 .7614.026.1105 0 .1904.381 1.1422.382.9519.786 1.6424.786 1.6424 6.224 2.089 12.514 4.5609 15.14 10.2207 1.807 3.8941 1.586 7.3568 1.904 11.4614.075.9621 1.829 2.3823 1.691 3.5809.026.9115-.616 1.8779-.739 2.719-.294 2.0164-.848 3.7843-1.511 5.7278-.3.8786.309 2.6057.228 3.534-.086 4.1668-.475 8.0108-2.515 11.9426-.901 1.7376-1.787 3.2004-3.306 4.6201-.488.4555-1.852 1.6152-2.143 2.042-1.219 1.789-1.643 3.7232-3.253 5.4247-3.654 3.8609-10.86 6.8828-16.095 8.8446-2.036.8093-4.634 1.6694-6.418 2.857-1.123.7484-3.197 3.2145-3.585 4.3744-.419 1.2481-.06 1.9718-1.881 2.6789-.393.1529-.696.6452-.937.9522-1.954 2.899-3.272 5.901-7.605 6.522-1.079.155-2.449.335-3.516.067-2.685-.675-4.154-2.076-3.088-4.56 1.181-2.7521 3.943-3.8033 6.047-5.8884 2.053-2.047 3.923-5.7645 6.748-7.1518 1.318-.647 2.607-.4035 4.051-1.5716 1.918-1.5525 3.847-3.6638 5.465-5.4482.699-.7704.619-1.3277 1.831-2.5242 1.464-1.4453 6.467-3.8686 7.086-5.025.569-1.064-.67-2.7802.81-5.0265 1.736-2.6338 3.642-3.2711 5.698-5.5091.928-1.0113 1.767-3.286 2.55-4.5551 2.079-3.3703 5.41-7.2736 6.489-10.9665-.843 1.3177-1.728 2.6104-2.721 3.8523-.94 1.1754-1.877 2.3482-2.721 3.5742-.829 1.2041-1.696 2.3953-2.484 3.6188-1.235 1.8748-1.754 3.696-3.661 5.253-2.84 2.3193-5.719 4.6475-8.879 6.6617-1.22.7777-3.164 1.8163-4.381 2.6882-.003.0098.017.2726.021.29.552 1.8175.184 2.0349-1.6 3.34-.156.6275-.206 1.3841-1.165 1.3552-.39-.3708-.284-.9099-.358-.9511-.891-.4769-1.462-.4995-2.3-1.1254-1.754.8343-3.396 1.8357-5.124 2.7172-2.271 4.527-2.699 4.7316-8.19 5.3444-1.974 2.6825-3.159.2747-3.961-1.1995-.609-1.1198-1.135-1.286-.758-2.8767.545-1.907-.903-1.7262-.828-3.1607.082-1.5626.646-2.2602 2.394-2.7585.661-.2056 1.202-2.8893 1.323-3.5742l-.084-.0517c-.305.0541-1.275.2325-1.529.1729-1.763-.4145-3.48-.9804-5.261-1.356-.655-.1381-1.554-.2274-1.628-.9002-.05-.3588.261-.8842.279-1.1976-.423.3001-.51 1.676-.358 2.1056 1.308 1.122 7.506 1.2427 7.462 2.9592-.566 1.0129-2.824 2.2589-2.972 2.6023-1.103 2.5688-2.822 4.3194-4.777 6.4766-.792.8736-.815 1.7785-1.842 2.6585-.184.4876-.093.7136-.089 1.1961.01 1.514.085 3.2701 1.695 4.1977l.188-.097c-.503-.4433-1.075-1.4531-.973-2.0379.485-2.771 5.586-2.9875 7.257-1.1891.626.674 1.126 1.7742.551 2.5659-.477.6544.223 1.2993.22 1.9832-.004.6375-.728 1.6232-.751 2.158-.036.8633.145 1.4543-.013 2.3599 2.25-3.4178 5.446-6.7993 7.768-10.3111 1.548-.76 3.092-1.1495 4.36-2.1174.831.0069 1.112 1.4144 1.003 1.5147-5.745 5.1536-9.615 11.9993-14.24 17.9499-.167.215-.002.466.097.658.707.212.91-.362 1.114.15.436 1.1-.194 2.837-.583 3.872 1.346-.249 2.287-.458 3.608-.851 4.168 1.278 7.15.308 10.161-2.331.172-.15 1.255-.246 1.713-.478l.04-.141c-.503.119-1.009.225-1.519.317.745-1.206 1.843-3.156 2.79-4.189.246.417.403.834.862 1.034.526-.297.362-1.145.337-1.631.538-.4679 1.078-.934 1.622-1.3974.219 1.4824.34 2.7664.211 4.2714-.015.181.492.12.333.718-.232.186-.983.747-.908.953.378 1.031.56 1.109-.897 1.701-.207.288-.222.212-.194.474l.102.112c.754.839.677 1.056.283 2.06 4.654-4.836 8.551-10.1614 11.583-15.8298.415-.7884 1.342-2.5843 1.577-3.4069 1.701-.691 3.364-1.4553 4.982-2.2892-4.714 13.0849-18.581 29.8329-32.648 36.9759-2.736 1.389-7.297 2.994-10.302 2.198-1.783-.471-2.84-1.226-3.714-2.616-.878-1.298-.862-2.746-1.006-4.212-.04-.413-.617-.953-.642-1.483-.062-1.336.657-2.609 1.307-3.818-1.945 1.189-4.8785 2.249-5.7256 4.22-.266.616.7134 1.192-1.0973 1.859-.5927.607-.6828 1.55-1.6372 1.547-1.2897.014-1.7285-.837-2.4535-1.514-.0648-.06-1.2803-.364-1.4125-.407-3.9037-1.265-2.8277-3.571-.1758-5.622 1.2313-.952 4.2686-1.729 4.4528-3.063.2069-1.513 1.37-1.652 2.699-1.895.9894-.181 2.6021-2.552 3.1011-3.341.073.661.321 1.923-.032 2.473l.064.128.397-.114c.217-.347-.632-24.0924-.988-26.226-.559 1.644-.321 1.9687-.632 3.5798-.132.6882-.9363 1.9737-1.3236 2.6662.0468.1926.0897.3868.1256.5815 1.648 8.9793-9.9611 26.8935-16.5695 34.7055-8.4524 9.817-20.0606 21.315-34.1092 24.592-5.4253 1.264-10.1039-1.887-10.3972-6.455-.7642-12.51 9.0348-27.102 17.587-37.234 7.5548-8.9499 21.1166-21.2482 33.9606-23.2035.1156-.2264.2762-.576.3275-.8194.4785-2.2454 3.5151-.926 4.8791-1.4757 1.4159-.571 3.4045-3.2681 4.445-4.8306l1.3997-1.8427c.918-1.0251 1.946-2.8415 2.574-3.5329.407-.4481 1.434-.7571 1.871-1.4259l.019-.3176c-.099-.0874-.158-.1388-.214-.1762l.06-.0491-5.7589-2.9555-.2012-.3607c-1.2985-.5396-3.4608-1.3778-4.6406-1.9706-2.4916-1.2512-4.1554-2.1479-6.8322-3.1577-1.0241.6684-1.9117 1.3304-2.8876 1.9821-1.1935 3.5945-4.355 3.2453-4.8042 4.4156.78.2781 1.9076.3764 2.1473 1.1203.9342 2.9024-6.5666 2.6325-8.0651 1.6486-1.8988-1.2483-3.0852-2.314-3.5158-4.4156-.7387.6854-2.1864 2.2768-3.0437 2.4658-.4516-.1327-.2988-.0291-.5451-.383-.0153-.7128.587-1.2906.6185-1.6404.3085-3.4699 1.7989-4.5179 5.0568-6.41.8009-.4656 2.3775-2.716 2.876-3.5136.3308-.5599.326-1.3276.7497-1.9918 1.0094-1.5857 2.3698-1.533 3.7915-.5417.4972.3481.4226 1.1161.3711 1.6333l3.0291.5165c1.8621-1.7857 3.1678-3.4536 4.8679-5.3065 2.5461-2.7762 5.6872-5.2721 8.4474-7.8939 1.025-1.0727 3.9261-1.9849 4.8531-2.8462 2.658-2.4713 6.461-5.4001 8.911-7.9029 2.747-2.8058 2.732-6.1046 6.88-8.8985 3.998-2.6923 6.131-2.4553 10.341-4.1717.024.0288.048.0574.071.0859l.64-.2555c-1.509-1.5774-2.245-3.6888-1.837-6.2118.445-2.69913 2.125-5.18304 4.665-6.89633 1.502-1.0262 3.736-2.32959 5.482-2.772591-1.999 1.500391-3.816 3.616971-4.197 5.520641 1.908-2.66512 4.96-5.520486 7.751-6.176143zm-56.0117 88.243323c-3.3301 1.0337-6.8012 3.153-9.5462 5.1172-10.0931 7.297-18.2913 16.837-24.2646 26.859-3.1376 5.265-7.3257 13.798-5.6734 19.716.9803 3.514 5.4874 3.397 8.7902 2.197 3.3549-1.218 6.372-2.907 9.2387-4.904 11.1758-7.827 20.3064-18.56 26.3657-29.675 1.5119-2.774 3.6808-7.319 4.3138-10.299-2.8033 3.463-5.5342 7.141-8.3512 10.663l-4.1075 5.168c-.4472.564-1.6267 1.951-1.8685 2.459.1642.738.7224 1.318-.4743 1.71-.506-.071-.682-.117-1.1625-.264-.6947.459-1.4223.966-2.1599 1.363-1.2701-.586-1.2129-.827-.911-2.049-1.7286-.383-4.1098-1.6-5.6205-2.47l-.3674.008c-.4232-.474-.8748-1.004-1.3313-1.446-.3478.388-.6603.837-1.1878.971-1.7593.054-1.9371-2.754-1.6427-3.827.4809-.105.7349-.055 1.2165-.014 6.0379-6.759 12.192-13.422 17.9939-20.331.2691-.3205.5085-.6163.75-.9522zm41.6437 22.1402c-1.295 1.194-.825 3.183-2.718 4.682-1.837.358-3.775 1.117-5.565 1.692-3.064 1.001-6.152 1.941-9.261 2.822 1.068 2.469 2.62 2.772 5.538 2.336 5.979-1.349 12.614-6.907 16.635-10.77-.633-.193-1.139-.413-1.741-.664-1.38.986-1.797 1.146-2.888-.098zm-.273-2.597c-2.959.557-9.871 2.978-12.804 4.063-1.158 2.341-2.406 3.784-4.435 5.623-.223.202-.082.816-.044 1.089 2.229-.409 10.439-3.048 12.62-3.919.529-.922 1.378-1.897 1.776-2.585 1.147-1.979 1.27-2.481 2.887-4.271zm-15.321 4.778c-.988.173-2.683 3.009-2.286 3.819l.242-.094c.764-.689 2.922-2.714 2.838-3.623zm-20.6591-25.0968c-.5811.1408-19.6396 20.0378-20.3751 21.4318l.5451.367c.1168.21.181.347.1051.585-.0297.038-.077.504-.0365.525 1.8875.897 3.6121 1.432 5.0851 2.818.4196.345.2939.359.7638.397.3429-.259.3955-.344.8119-.373.4022.218.5052.313.8513.599 1.7841-1.189 14.9828-20.5503 16.5263-23.1909-1.0176-2.0744-1.7287-2.5902-4.277-3.1589zm37.7351 19.9248c-.345.047-1.188.124-1.396.329-.438.435-.881 1.455-.858 2.007.267.042.191.026.48-.019.521-.491 1.231-1.641 1.774-2.317zm-14.096-.782c-.8.492-1.163 1.467-1.437 2.226 1.317-.274 1.523-1.221 1.437-2.226zm17.73.687c-.279.085-.92.16-1.298.243-.309.328-.214.218-.283.695.74.083 1.651-.171 1.581-.938zm-17.478-9.4519c-2.959.6151-2.431.9904-4.997 2.4689-.148.085-1.336.393-1.572.453-.019 1.256-.061 3.247.412 4.384l.135-.02c2.311-2.603 3.911-4.706 6.022-7.2859zm-22.4037-16.4206c-.5151.008-.6283.0441-1.1319.177l.0626.0821c3.0912.2522 4.985.3711 6.7491 2.7637.2014.3065.1255.3244.4136.3886l.0596-.2518c-.9236-2.4562-3.2791-3.196-6.153-3.1596zm31.5147-48.5852c-.636.1927-1.21.8377-1.668 1.2667-2.324 2.18-4.905 4.1694-7.343 6.2557-2.169 1.855-4.983 2.9753-7.038 4.9157-1.989 1.8605-3.94 3.7827-6.079 5.5181-2.723 2.1669-6.0934 3.6432-9.0867 5.4979l8.2171 3.7933c.8796.4098.9096.6028 1.9696.5536 1.554-.0719 1.217 1.086 3.047.2015.549-.0091 3.85 1.3645 4.73 1.4322.145.0117.948.5408 1.145.6726-.125.44-.321.9456-.478 1.3869 2.101 1.3457 6.442 3.0201 8.874 4.2208 2.29-.6682 3.55.0053 3.417 2.1063 3.402 2.0037 1.728 3.0809 6.352.1268 3.153-2.015 5.408-4.1564 8.008-6.6811 2.065-2.004 4.813-3.6913 7.218-5.4069 1.786-1.2741 1.542-3.8383 2.231-5.5734.789-1.9856 1.674-3.646 2.666-5.5009.308-.5721.605-1.149.889-1.7293-3.811 4.2939-4.11 4.849-5.482 10.0972-2.488 1.7224-4.523 3.8431-7.083 5.627-3.61 2.5161-7.586 3.2896-11.244 5.6296-.941.6023-2.034 1.1399-3.054 1.6244-1.655-.9872-3.214-1.1547-5.059-1.9029-2.011-.8158-4.08-1.9258-6.109-2.6391-.031-.7779.153-1.9259.253-2.7313 1.107-1.3323 1.849-2.7005 2.843-4.0435 3.472-4.6952 8.506-8.6363 13.795-11.8027 1.257-.7522 2.224-1.3742 2.966-2.5451l1.703-.7823c1.247 1.1792 6.481 3.7879 8.253 4.3729-3.269-1.8047-4.615-3.0395-7.452-5.2046-2.558-1.9527-5.588-3.4075-7.8-5.8582-.853-.9455-2.352-2.4947-3.601-2.8979z" fill="#999" fill-rule="evenodd"/><g fill="#fff"><path d="m60.8318 118.705c-.2143.706-.2715 1.369-.1717 1.989.0998.619.3463 1.155.7395 1.606.3974.438.9361.759 1.616.965.6799.205 1.3068.236 1.8807.092.5781-.158 1.081-.467 1.5085-.928.4275-.46.7484-1.043.9627-1.749.2184-.721.2826-1.381.1925-1.983-.0859-.616-.3275-1.142-.725-1.58-.3793-.447-.9298-.779-1.6513-.997-.68-.206-1.309-.23-1.8871-.072-.5739.144-1.0746.446-1.5021.907-.4233.446-.7442 1.03-.9627 1.75zm-4.8497-1.466c.353-1.163.8804-2.152 1.5824-2.968s1.5237-1.452 2.465-1.908c.9413-.457 1.9592-.716 3.0536-.778 1.0945-.063 2.2106.078 3.3485.422 1.1656.352 2.1863.857 3.0623 1.515.8759.658 1.5787 1.437 2.1083 2.338.5295.9.8526 1.882.9693 2.945.1167 1.064-.0014 2.177-.3544 3.34-.3529 1.163-.8776 2.168-1.5741 3.016-.6785.838-1.4856 1.501-2.4215 1.99-.9358.488-1.96.768-3.0725.84-1.1029.09-2.251-.046-3.4443-.406-1.1934-.361-2.2307-.886-3.1122-1.575-.8717-.672-1.5612-1.47-2.0685-2.394s-.8172-1.925-.9297-3.002c-.0944-1.087.0349-2.212.3878-3.375z"/><path d="m85.4703 116.85 4.5021.766-2.6847 15.724-8.4687-9.189-1.1579 6.782-4.5021-.766 2.6847-15.724 8.4688 9.189z"/><path d="m90.8012 122.098.3205-4.22 13.4453 1.017-.321 4.22-4.337-.328-.83 10.928-4.7708-.361.83-10.928z"/><path d="m106.821 131.961-.036-3.428 8.046-.084.036 3.428zm3.913-6.378-1.826 4.208.381 1.081-1.621 3.034-5.437.057 8.419-16.366 8.761 16.186-5.437.057-1.639-2.848.313-1.24z"/><path d="m125.621 126.65 4.864-.532 5.035 5.998-5.513.604zm-5.381-8.143 4.756-.521 1.661 15.1-4.756.521zm3.509 3.654-.439-3.991 3.308-.362c1.484-.162 2.712-.071 3.683.274.986.343 1.738.879 2.256 1.608.532.728.853 1.595.964 2.602.109.992-.016 1.908-.376 2.748-.347.824-.964 1.511-1.852 2.059-.874.547-2.052.901-3.537 1.064l-3.307.362-.392-3.559 2.875-.315c.404-.044.73-.131.978-.26.247-.143.423-.33.529-.56.121-.232.165-.491.134-.779-.034-.302-.133-.546-.3-.731-.153-.202-.365-.339-.636-.411-.272-.086-.609-.108-1.013-.064z"/><path d="m135.284 116.787 4.809-.901 2.811 14.93-4.809.901z"/><path d="m148.895 121.468c.202.71.513 1.299.932 1.766.42.468.917.786 1.492.954.572.154 1.199.134 1.882-.06.684-.194 1.228-.506 1.633-.936.401-.445.657-.976.767-1.594.111-.618.065-1.282-.137-1.991-.206-.724-.51-1.315-.911-1.773-.406-.471-.894-.784-1.465-.938-.562-.172-1.205-.155-1.93.051-.684.193-1.226.512-1.627.957-.405.43-.663.955-.773 1.573-.115.604-.069 1.267.137 1.991zm-4.874 1.381c-.333-1.169-.425-2.286-.276-3.351s.496-2.043 1.042-2.934c.545-.892 1.261-1.659 2.148-2.301.887-.643 1.903-1.126 3.046-1.45 1.172-.332 2.304-.457 3.397-.376 1.094.081 2.107.358 3.04.831.933.472 1.737 1.124 2.411 1.956.673.832 1.177 1.832 1.509 3.001.333 1.169.436 2.298.309 3.387-.118 1.071-.438 2.064-.961 2.98-.523.915-1.234 1.703-2.131 2.363-.879.67-1.919 1.175-3.118 1.515s-2.357.458-3.472.352c-1.097-.095-2.109-.394-3.036-.899-.927-.504-1.73-1.179-2.408-2.025-.667-.863-1.168-1.88-1.5-3.049z"/><path d="m35.2961 39.6531 3.6546-2.2464 6.25 2.8658-4.1419 2.5459zm-7.3317-4.4368 3.5734-2.1964 7.0034 11.346-3.5734 2.1964zm4.1574 1.5809-1.8509-2.9986 2.4851-1.5275c1.1153-.6856 2.1229-1.0739 3.0227-1.1649.9106-.0976 1.7084.0455 2.3934.4293.6959.3772 1.2773.944 1.7442 1.7004.4602.7456.7059 1.5187.737 2.3193.0354.7832-.1955 1.5586-.6926 2.3262-.4863.761-1.287 1.4842-2.4024 2.1698l-2.4851 1.5275-1.6508-2.6744 2.1603-1.3278c.3032-.1864.5289-.3773.6771-.5728.1416-.2062.211-.4203.2084-.6423.0083-.2287-.0543-.451-.1877-.6672-.1401-.2269-.3109-.3827-.5126-.4674-.1975-.1022-.417-.1312-.6586-.087-.2483.0333-.5241.1432-.8272.3295z"/><path d="m48.3406 37.088-1.1547-2.7783 6.5198-2.6984 1.1547 2.7783zm1.0906-6.4692-.1049 4.021.665.7552-.3234 2.9985-4.4053 1.8232 1.4792-16.0689 12.4416 10.3075-4.4053 1.8232-2.2687-1.7814-.1522-1.1117z"/><path d="m65.4092 18.9344 3.8647-1.0529 3.6927 13.4981-10.1419-4.1832 1.5926 5.8216-3.8647 1.0528-3.6927-13.498 10.142 4.1832z"/><path d="m73.3925 16.9747 4.3103-.7097 2.1739 13.1479-4.3102.7097zm7.3501 12.2956-2.3152.3812-.59-3.5687 2.1269-.3502c.3639-.0599.7289-.1522 1.095-.2767.3661-.1246.6894-.3129.97-.5649.2805-.252.4818-.5939.6038-1.0256.1345-.4337.1458-.9887.034-1.6649s-.3012-1.1981-.5682-1.5657c-.2545-.3697-.5551-.6289-.9019-.7776-.3469-.1487-.7137-.2234-1.1005-.224s-.7621.029-1.126.0889l-2.1269.3502-.5901-3.5687 2.3151-.3812c1.5309-.252 2.8857-.205 4.0643.1412 1.1912.3441 2.1561.957 2.8949 1.8386.7512.8796 1.2407 2.0081 1.4684 3.3855.2257 1.3649.1255 2.5905-.3007 3.6768-.4158 1.0718-1.1323 1.9615-2.1495 2.6693-1.0048.7056-2.2726 1.1845-3.8034 1.4365z"/><path d="m93.3572 20.9398c.0458.6456.2067 1.2068.4828 1.6834.2761.4767.646.8386 1.1098 1.0857.4629.2345 1.0051.3298 1.6267.2858.6216-.0439 1.145-.2145 1.5702-.5117.4242-.3099.7393-.7202.9453-1.231.206-.5107.2861-1.0889.2403-1.7345-.0468-.6583-.2014-1.2199-.4638-1.6849-.2634-.4775-.6266-.8336-1.0894-1.068-.4511-.248-1.0065-.3487-1.6662-.3021-.6216.0439-1.1445.2208-1.5688.5307-.4251.2972-.7407.7012-.9467 1.212-.2069.4981-.2869 1.0763-.2402 1.7346zm-4.4338.3133c-.0755-1.0634.0466-2.0389.366-2.9267.3195-.8877.7934-1.6655 1.4217-2.3333.6284-.6679 1.3812-1.1982 2.2586-1.591.8773-.3928 1.8361-.6259 2.8764-.6995 1.0656-.0753 2.0604.0198 2.9845.2853s1.7444.6846 2.4604 1.2574c.717.5728 1.289 1.2766 1.718 2.1114.429.8349.682 1.784.757 2.8474.076 1.0634-.039 2.0512-.344 2.9633-.293.8986-.747 1.6941-1.361 2.3863-.614.6923-1.365 1.2416-2.2543 1.6479-.8756.4182-1.8588.6658-2.9498.7429s-2.1058-.0293-3.0444-.3192c-.9249-.2782-1.7401-.7167-2.4456-1.3157s-1.2732-1.3223-1.7031-2.1698c-.4181-.8611-.6649-1.8233-.7404-2.8867z"/><path d="m115.247 13.6555 4.005.0727-.255 13.9897-8.556-6.8574-.11 6.0336-4.006-.0727.255-13.9897 8.557 6.8574z"/><path d="m131.905 14.8943 3.984.426-1.494 13.9123-7.915-7.5857-.645 6.0003-3.983-.426 1.494-13.9123 7.915 7.5857z"/><path d="m140.128 29.5418.64-3.2695 6.609 1.289-.64 3.2695zm1.921-9.8087.641-3.2695 6.609 1.289-.641 3.2695zm-.915 4.6708.622-3.1761 6.235 1.216-.622 3.1761zm-1.29-8.4954 3.931.7669-2.561 13.0782-3.932-.7668z"/><path d="m153.013 18.6562 4.025 1.1868-2.433 8.2154c-.151.5111-.147.9688.012 1.3729.174.3956.536.6743 1.085.8361.549.1619.998.1224 1.348-.1186.365-.2494.624-.6298.775-1.141l2.433-8.2153 4.025 1.1869-2.541 8.5804c-.27.9128-.652 1.6407-1.144 2.1837-.477.5344-1.035.919-1.674 1.1538-.637.2227-1.321.3185-2.055.2875-.725-.0153-1.465-.1344-2.221-.3574-.757-.223-1.449-.5264-2.078-.9104-.62-.3682-1.137-.8183-1.55-1.3502-.409-.5441-.674-1.1715-.795-1.8821-.105-.7192-.023-1.5353.247-2.4481z"/><path d="m168.949 31.9909 3.941 1.6962 1.237 6.7519-4.467-1.9224zm-.569-8.5376 3.853 1.6585-5.288 12.2362-3.854-1.6585zm1.089 4.3043 1.398-3.2338 2.68 1.1534c1.203.5177 2.1 1.118 2.691 1.8009.603.6879.944 1.4219 1.022 2.202.09.7851-.041 1.5855-.394 2.4013-.347.8041-.84 1.4487-1.479 1.9338-.623.4786-1.391.7351-2.307.7697-.903.0396-1.956-.1995-3.159-.7171l-2.68-1.1535 1.246-2.8842 2.33 1.0026c.327.1408.613.2156.859.2245.25-.0028.466-.069.646-.1985.193-.1246.339-.3034.44-.5365.106-.2447.136-.4737.089-.6872-.029-.22-.132-.416-.307-.5881-.169-.1837-.418-.3459-.745-.4866z"/><path d="m179.861 38.0029c-.02.5113.024.9941.13 1.4486.113.4437.287.8362.524 1.1774.247.348.538.6259.873.8337.281.1744.552.268.813.281.269.0021.48-.1207.635-.3685.094-.1509.12-.3137.08-.4885-.03-.1681-.153-.4161-.368-.7439s-.556-.8014-1.024-1.4206c-.203-.2754-.425-.6153-.667-1.0198-.231-.3977-.418-.8426-.561-1.3347-.132-.4854-.174-1.0053-.128-1.5596.057-.5476.263-1.107.619-1.6781.464-.7435 1.053-1.2444 1.769-1.5027.715-.2584 1.483-.3123 2.303-.1619s1.624.4704 2.412.9598c.853.5298 1.501 1.1117 1.945 1.7458.454.6408.754 1.2758.901 1.9051.158.636.218 1.2117.181 1.727l-3.547-.1848c-.005-.3767-.068-.7075-.19-.9924-.104-.2891-.241-.5383-.41-.7479-.169-.2095-.356-.378-.561-.5054-.248-.1542-.48-.2385-.696-.2529-.205-.0076-.364.0801-.479.2633-.141.2263-.15.4819-.029.7668.14.2809.353.6.639.9573.294.3465.611.738.953 1.1746.353.4432.637.8886.852 1.3362.222.4367.366.8777.433 1.3229.078.4518.067.9012-.031 1.348-.093.436-.276.8749-.552 1.3167-.39.625-.865 1.0994-1.427 1.4234-.555.3132-1.151.4885-1.788.5261-.627.0443-1.266-.0238-1.918-.2041-.651-.1803-1.269-.4515-1.852-.8136-.809-.5029-1.481-1.107-2.015-1.8122-.53-.6877-.904-1.4209-1.123-2.1993-.218-.7785-.279-1.5338-.182-2.2658z"/></g><path d="m130.294 74.7414 2.956-.2348 1.332 16.6995-2.957.2348z" fill="#999"/><path d="m131.167 73.8894 4.251 3.8916-11.349 12.344-4.251-3.8916z" fill="#999"/></svg>