<svg xmlns="http://www.w3.org/2000/svg" version="1.1" xmlns:xlink="http://www.w3.org/1999/xlink" width="585" height="585"><svg xmlns="http://www.w3.org/2000/svg" version="1.1" xmlns:xlink="http://www.w3.org/1999/xlink" width="585" height="585"><svg width="585" height="585" viewBox="0 0 585 585" fill="none" xmlns="http://www.w3.org/2000/svg"><path d="M292.5 118.821C372.121 118.821 444.327 137.876 496.711 168.814C549.04 199.719 582 242.772 582 290.821C582 338.87 549.04 381.923 496.711 412.828C444.327 443.766 372.121 462.821 292.5 462.821C212.879 462.821 140.674 443.766 88.2893 412.828C35.961 381.923 3.00024 338.87 3.00024 290.821C3.00024 242.772 35.961 199.719 88.2893 168.814C140.674 137.876 212.879 118.821 292.5 118.821Z" fill="#0F538A" stroke="#000" stroke-width="5"/><path d="M292.5 186.821C352.715 186.821 407.352 198.569 447.028 217.675C486.526 236.697 512 263.457 512 293.821C512 324.184 486.526 350.945 447.028 369.966C407.352 389.073 352.715 400.821 292.5 400.821C232.286 400.821 177.649 389.073 137.973 369.966C98.4746 350.945 73.0005 324.184 73.0005 293.821C73.0005 263.457 98.4746 236.697 137.973 217.675C177.649 198.569 232.286 186.821 292.5 186.821Z" fill="url(#paint0_radial_2004_194)" stroke="#000" stroke-width="5"/><path fill-rule="evenodd" clip-rule="evenodd" d="M340.357 144.157C329.322 148.665 323.732 148.041 313.253 155.113C302.38 162.451 302.422 171.116 295.221 178.486C288.799 185.059 278.833 192.752 271.866 199.243C269.437 201.505 261.83 203.9 259.144 206.718C251.91 213.604 243.678 220.159 237.004 227.451C232.548 232.318 229.126 236.699 224.245 241.389L216.306 240.032C216.441 238.674 216.637 236.656 215.333 235.742C211.606 233.138 208.041 233 205.396 237.165C204.285 238.91 204.298 240.926 203.431 242.397C202.124 244.491 197.992 250.403 195.893 251.625C187.353 256.595 183.448 259.347 182.639 268.461C182.557 269.38 180.977 270.896 181.018 272.769C181.664 273.7 181.262 273.427 182.446 273.776C184.693 273.28 188.488 269.099 190.424 267.299C191.553 272.819 194.662 275.618 199.639 278.896C203.566 281.481 223.227 282.191 220.777 274.567C220.149 272.613 217.194 272.355 215.149 271.624C216.326 268.55 224.613 269.469 227.742 260.026C230.3 258.315 232.625 256.576 235.31 254.82C242.326 257.473 246.687 259.827 253.217 263.114C256.31 264.671 261.977 266.873 265.38 268.29L266.982 271.169C268.963 272.419 271.098 272.894 273.435 273.528C265.214 275.034 256.822 276.859 257.793 285.806C258.661 293.81 252.538 300.658 250.168 307.864C250.996 306.828 254.798 301.925 255.452 301.41C258.579 298.95 259.304 299.564 262.029 296.257C262.075 294.848 262.053 292.976 262.434 291.636C263.79 292.547 265.823 293.824 266.974 294.849C264.704 298.441 258.584 307.282 254.386 308.978C250.811 310.422 242.852 306.955 241.598 312.854C241.464 313.493 241.042 314.411 240.739 315.006C207.075 320.141 171.53 352.443 151.729 375.95C129.314 402.561 103.63 440.889 105.633 473.745C106.402 485.745 118.664 494.02 132.884 490.699C169.706 482.093 200.131 451.892 222.285 426.109C239.606 405.59 270.032 358.538 265.713 334.954C265.619 334.442 265.507 333.933 265.384 333.427C266.399 331.608 268.509 328.232 268.854 326.424C269.668 322.192 269.044 321.341 270.509 317.022C271.443 322.625 273.67 385.028 273.099 385.905L272.059 386.204L271.891 385.868C272.817 384.424 272.166 381.11 271.976 379.374C270.666 381.444 266.44 387.673 263.847 388.148C260.363 388.786 257.315 389.151 256.773 393.124C256.29 396.63 248.329 398.67 245.102 401.171C238.151 406.557 235.331 412.614 245.563 415.936C245.909 416.049 249.098 416.849 249.265 417.004C251.166 418.782 252.315 421.017 255.696 420.981C258.197 420.989 258.433 418.511 259.987 416.919C264.733 415.167 262.165 413.654 262.862 412.034C265.082 406.859 272.771 404.074 277.869 400.951C276.165 404.127 274.28 407.471 274.444 410.979C274.51 412.373 276.021 413.79 276.126 414.876C276.502 418.727 276.463 422.529 278.762 425.939C281.053 429.589 283.825 431.572 288.496 432.809C296.374 434.9 308.327 430.684 315.5 427.034C352.371 408.275 388.713 364.286 401.069 329.918C396.829 332.109 392.47 334.116 388.011 335.931C387.395 338.091 384.967 342.808 383.879 344.879C375.931 359.767 365.718 373.754 353.519 386.455C354.552 383.819 354.754 383.25 352.776 381.045L352.511 380.752C352.437 380.061 352.476 380.262 353.02 379.505C356.838 377.951 356.361 377.746 355.369 375.039C355.172 374.499 357.142 373.024 357.749 372.536C358.168 370.963 356.837 371.126 356.877 370.649C357.215 366.697 356.898 363.324 356.324 359.431C354.899 360.649 353.482 361.872 352.071 363.102C352.138 364.379 352.57 366.606 351.189 367.385C349.985 366.859 349.575 365.765 348.93 364.668C346.449 367.383 343.569 372.504 341.618 375.671C342.953 375.428 344.281 375.151 345.6 374.838L345.495 375.21C344.293 375.818 341.453 376.072 341.005 376.465C333.113 383.397 325.297 385.943 314.372 382.588C310.909 383.62 308.444 384.167 304.915 384.822C305.936 382.105 307.588 377.543 306.443 374.653C305.909 373.306 305.377 374.815 303.523 374.258C303.263 373.754 302.831 373.095 303.269 372.53C315.392 356.901 325.534 338.921 340.594 325.385C340.88 325.127 340.143 321.424 337.963 321.406C334.641 323.949 330.593 324.971 326.535 326.968C320.451 336.192 312.073 345.073 306.177 354.05C306.592 351.671 306.117 350.12 306.211 347.852C306.27 346.447 308.17 343.858 308.178 342.183C308.187 340.387 306.351 338.694 307.602 336.975C309.109 334.895 307.798 332.006 306.157 330.236C301.777 325.512 288.409 326.08 287.137 333.359C286.87 334.895 288.368 337.547 289.687 338.711L289.193 338.966C284.975 336.529 284.777 331.917 284.751 327.941C284.741 326.673 284.502 326.08 284.985 324.799C287.679 322.488 287.738 320.111 289.813 317.816C294.937 312.15 299.442 307.553 302.333 300.806C302.719 299.905 308.639 296.632 310.123 293.971C310.241 289.462 293.992 289.146 290.567 286.198C290.167 285.07 290.394 281.456 291.505 280.668C291.457 281.491 290.641 282.871 290.774 283.814C290.965 285.581 293.323 285.816 295.04 286.178C299.707 287.165 304.208 288.651 308.83 289.739C309.495 289.896 312.037 289.427 312.835 289.285L313.056 289.421C312.741 291.219 311.321 298.269 309.588 298.808C305.007 300.117 303.529 301.949 303.314 306.054C303.118 309.822 306.913 309.346 305.486 314.355C304.497 318.534 305.875 318.969 307.471 321.911C309.572 325.783 312.679 332.108 317.852 325.061C332.245 323.452 333.366 322.916 339.318 311.025C343.848 308.71 348.15 306.079 352.749 303.888C354.946 305.532 356.44 305.591 358.777 306.844C358.971 306.949 358.692 308.367 359.716 309.342C362.229 309.418 362.36 307.431 362.769 305.782C367.445 302.354 368.41 301.784 366.963 297.01C366.951 296.97 366.899 296.259 366.906 296.248C370.098 293.958 375.191 291.231 378.39 289.188C386.673 283.897 394.219 277.782 401.663 271.691C406.66 267.601 408.02 262.818 411.258 257.894C413.324 254.68 415.594 251.552 417.768 248.389C419.982 245.168 422.435 242.088 424.899 239.001C427.503 235.739 429.823 232.344 432.032 228.883C429.205 238.583 420.474 248.834 415.023 257.687C412.971 261.02 410.774 266.995 408.339 269.651C402.951 275.529 397.956 277.202 393.407 284.121C389.526 290.021 392.774 294.528 391.282 297.322C389.661 300.359 376.546 306.724 372.709 310.52C369.532 313.663 369.743 315.126 367.912 317.15C363.67 321.837 358.615 327.382 353.587 331.46C349.804 334.528 346.426 333.888 342.971 335.588C335.566 339.231 330.666 348.996 325.284 354.372C319.769 359.849 312.529 362.609 309.434 369.838C306.641 376.361 310.489 380.042 317.529 381.815C320.324 382.519 323.915 382.046 326.743 381.64C338.101 380.008 341.554 372.124 346.676 364.509C347.309 363.703 348.1 362.41 349.132 362.008C353.906 360.151 352.965 358.25 354.061 354.972C355.08 351.926 360.514 345.448 363.46 343.483C368.135 340.363 374.943 338.104 380.281 335.979C394.002 330.826 412.889 322.889 422.464 312.749C426.684 308.279 427.796 303.2 430.991 298.5C431.753 297.38 435.33 294.333 436.608 293.137C440.59 289.408 442.911 285.567 445.273 281.002C450.619 270.675 451.639 260.579 451.865 249.635C452.076 247.196 450.481 242.66 451.267 240.353C453.005 235.248 454.456 230.606 455.227 225.309C455.549 223.1 457.233 220.561 457.164 218.167C457.526 215.018 452.929 211.289 452.734 208.762C451.9 197.98 452.478 188.886 447.742 178.658C440.679 163.405 423.51 156.966 406.788 151.385C403.987 155.81 402.646 157.391 398.566 160.834C400.75 157.414 406.374 147.715 405.53 144.208C404.076 142.614 402.051 144.123 400.422 145.212C382.116 157.457 354.857 161.918 340.357 144.157ZM226.509 332.05C225.875 332.932 225.249 333.709 224.543 334.551C209.336 352.698 193.207 370.197 177.381 387.951C176.119 387.844 175.453 387.71 174.193 387.988C173.421 390.804 173.887 398.182 178.498 398.038C179.881 397.687 180.699 396.507 181.611 395.488C182.808 396.649 183.991 398.042 185.1 399.285L186.064 399.267C190.024 401.552 196.265 404.747 200.795 405.754C200.004 408.963 199.854 409.596 203.183 411.134C205.117 410.09 207.023 408.761 208.844 407.554C210.104 407.941 210.565 408.061 211.891 408.25C215.028 407.22 213.564 405.695 213.134 403.756C213.767 402.424 216.859 398.779 218.031 397.299L228.797 383.725C236.181 374.474 243.338 364.813 250.686 355.718C249.027 363.544 243.342 375.483 239.379 382.77C223.498 411.963 199.566 440.153 170.274 460.711C162.76 465.956 154.853 470.391 146.06 473.591C137.403 476.742 125.59 477.05 123.021 467.819C118.69 452.276 129.667 429.864 137.891 416.036C153.547 389.713 175.034 364.656 201.488 345.49C208.683 340.331 217.78 334.765 226.509 332.05ZM335.658 390.2C338.518 393.47 339.609 393.048 343.228 390.458C344.804 391.119 346.131 391.694 347.789 392.202C337.25 402.348 319.861 416.947 304.188 420.491C296.541 421.636 292.473 420.839 289.675 414.356C297.824 412.041 305.916 409.571 313.948 406.944C318.638 405.433 323.719 403.44 328.533 402.499C333.497 398.562 332.263 393.336 335.658 390.2ZM334.94 383.381C330.703 388.083 330.382 389.399 327.376 394.599C326.332 396.406 324.106 398.966 322.719 401.387C317.003 403.676 295.485 410.608 289.642 411.681C289.543 410.963 289.172 409.352 289.758 408.822C295.076 403.992 298.348 400.2 301.382 394.052C309.07 391.203 327.186 384.845 334.94 383.381ZM296.865 396.198C297.088 398.586 291.43 403.903 289.428 405.713L288.793 405.961C287.752 403.833 292.197 396.384 294.786 395.929L296.865 396.198ZM335.884 383.21C336.427 382.671 338.638 382.469 339.542 382.347C338.119 384.122 336.259 387.142 334.893 388.431C334.134 388.549 334.334 388.591 333.634 388.481C333.574 387.03 334.736 384.35 335.884 383.21ZM349.066 382.095C349.249 384.111 346.862 384.779 344.923 384.559C345.105 383.305 344.853 383.596 345.665 382.734C346.655 382.516 348.335 382.319 349.066 382.095ZM302.596 380.292C302.821 382.932 302.284 385.418 298.831 386.138C299.547 384.146 300.499 381.583 302.596 380.292ZM240.638 330.013C247.318 331.507 249.181 332.861 251.848 338.31C247.804 345.244 213.206 396.1 208.532 399.22C207.625 398.469 207.356 398.221 206.301 397.649C205.21 397.725 205.072 397.946 204.173 398.626C202.941 398.527 203.271 398.491 202.171 397.584C198.311 393.945 193.791 392.539 188.843 390.182C188.736 390.131 188.861 388.902 188.939 388.803C189.138 388.179 188.97 387.818 188.664 387.266L187.234 386.303C189.158 382.644 239.127 330.37 240.638 330.013ZM303.257 357.271C297.722 364.048 293.531 369.571 287.473 376.407L287.119 376.46C285.878 373.473 285.991 368.243 286.039 364.944C286.657 364.787 289.773 363.978 290.161 363.754C296.885 359.871 295.5 358.886 303.257 357.271ZM241.569 314.606C242.89 314.257 243.186 314.163 244.536 314.142C252.069 314.046 258.243 315.989 260.663 322.441L260.507 323.102C259.752 322.933 259.951 322.887 259.423 322.081C254.799 315.797 249.836 315.485 241.734 314.822L241.569 314.606ZM327.137 186.532C330.411 187.591 334.339 191.66 336.576 194.143C342.374 200.58 350.315 204.402 357.02 209.531C364.454 215.217 367.982 218.46 376.549 223.2C371.905 221.664 358.186 214.812 354.918 211.715L350.456 213.769C348.51 216.845 345.976 218.479 342.682 220.454C328.818 228.771 315.624 239.122 306.524 251.454C303.92 254.982 301.975 258.575 299.074 262.075C298.812 264.19 298.328 267.205 298.41 269.248C303.729 271.122 309.152 274.038 314.422 276.18C319.257 278.145 323.345 278.585 327.681 281.178C330.355 279.905 333.219 278.493 335.687 276.911C345.273 270.765 355.696 268.734 365.158 262.125C371.866 257.44 377.201 251.87 383.722 247.346C387.318 233.561 388.1 232.104 398.09 220.826C397.345 222.35 396.568 223.865 395.76 225.368C393.159 230.24 390.839 234.6 388.772 239.816C386.965 244.373 387.607 251.108 382.925 254.454C376.621 258.96 369.418 263.392 364.007 268.656C357.192 275.287 351.282 280.911 343.016 286.203C330.896 293.963 335.286 291.133 326.369 285.87C326.717 280.351 323.415 278.583 317.412 280.338C311.038 277.185 299.66 272.786 294.154 269.252C294.566 268.092 295.078 266.765 295.407 265.609C294.889 265.263 292.783 263.873 292.406 263.843C290.098 263.665 281.447 260.056 280.007 260.081C275.212 262.404 276.094 259.363 272.021 259.552C269.244 259.681 269.165 259.174 266.859 258.097L245.322 248.135C253.168 243.263 262.001 239.386 269.14 233.695C274.745 229.136 279.858 224.088 285.072 219.201C290.459 214.104 297.834 211.162 303.517 206.29C309.909 200.81 316.672 195.585 322.764 189.859C323.964 188.732 325.47 187.038 327.137 186.532ZM259.812 292.088C260.332 294.864 260.796 297.78 256.568 298.601C257.164 296.841 258.257 293.126 259.812 292.088ZM262.154 290.214C263.024 284.389 263.861 277.14 272.369 276.255C273.401 276.148 274.214 278.727 276.705 278.785C278.026 278.416 278.81 277.581 279.848 276.717C280.758 277.033 280.738 276.998 281.405 277.592L281.354 278.425C280.209 280.183 277.517 280.993 276.452 282.171C274.311 284.532 270.4 291.898 267.646 293.18C266.123 293.208 263.95 292.184 262.434 291.636C262.307 291.297 262.084 290.686 262.154 290.214ZM262.045 282.979C261.69 284.423 261.387 286.094 260.59 287.389L260.046 287.65C259.924 285.851 259.958 284.059 262.045 282.979Z" fill="#DF2029"/><path d="M267.635 367.611C266.735 367.839 266.303 368.359 265.847 368.993C265.575 370.943 267.319 371.788 269.174 372.311C272.948 370.166 271.161 368.282 267.635 367.611Z" fill="#DF2029"/><path d="M373.316 100.279C360.229 101.268 354.801 115.935 351.548 124.886C352.334 116.338 353.613 111.024 360.739 104.56C356.162 105.724 353.57 106.587 349.633 109.282C342.975 113.782 338.571 120.306 337.406 127.396C335.118 141.559 346.534 150.786 362.134 151.931C363.188 152.121 364.255 152.269 365.33 152.373C379.777 153.706 394.23 147.349 405.54 139.75C407.89 139.559 408.058 139.423 409.304 137.704C413.817 131.477 413.382 125.246 411.083 118.794C410.194 120.702 409.257 122.595 408.272 124.471C409.75 118.457 411.036 107.952 400.367 107.306C399.253 107.238 398.53 109.187 397.767 110.045C396.863 111.061 395.977 111.995 394.975 112.983C395.692 110.828 397.53 106.655 396.403 104.71C394.774 101.898 389.297 100.45 385.775 101.519C383.561 102.191 380.953 104.842 378.397 104.161C378.472 102.83 380.648 102.759 379.558 101.202C377.826 100.235 375.352 100.235 373.316 100.279Z" fill="#DF2029"/><path d="M164.941 412.867C164.379 414.721 164.229 416.463 164.491 418.09C164.752 419.718 165.398 421.125 166.429 422.31C167.47 423.459 168.882 424.304 170.664 424.843C172.447 425.383 174.09 425.464 175.594 425.085C177.109 424.671 178.427 423.859 179.547 422.649C180.668 421.44 181.509 419.908 182.071 418.053C182.643 416.162 182.812 414.427 182.575 412.846C182.35 411.23 181.717 409.847 180.675 408.698C179.681 407.523 178.238 406.649 176.347 406.077C174.565 405.537 172.916 405.475 171.401 405.889C169.897 406.268 168.584 407.061 167.464 408.271C166.354 409.443 165.513 410.975 164.941 412.867ZM152.23 409.018C153.155 405.963 154.537 403.364 156.377 401.221C158.217 399.078 160.371 397.408 162.838 396.209C165.305 395.011 167.973 394.33 170.841 394.166C173.71 394.002 176.635 394.372 179.618 395.275C182.673 396.2 185.348 397.526 187.644 399.254C189.94 400.981 191.782 403.028 193.17 405.394C194.558 407.76 195.405 410.339 195.711 413.131C196.016 415.924 195.707 418.847 194.782 421.902C193.857 424.957 192.481 427.598 190.656 429.825C188.878 432.026 186.762 433.767 184.309 435.05C181.856 436.332 179.172 437.067 176.256 437.256C173.365 437.493 170.356 437.138 167.229 436.191C164.101 435.243 161.382 433.864 159.072 432.053C156.787 430.289 154.979 428.193 153.65 425.766C152.32 423.339 151.508 420.71 151.213 417.881C150.966 415.027 151.305 412.073 152.23 409.018ZM229.518 407.996L241.318 410.007L234.282 451.307L212.085 427.172L209.05 444.984L197.25 442.974L204.287 401.674L226.484 425.809L229.518 407.996ZM243.491 421.779L244.331 410.695L279.57 413.366L278.73 424.449L267.362 423.588L265.187 452.291L252.682 451.343L254.858 422.64L243.491 421.779ZM285.479 447.685L285.384 438.68L306.473 438.459L306.568 447.464L285.479 447.685ZM295.735 430.933L290.948 441.985L291.947 444.824L287.698 452.792L273.449 452.941L295.515 409.958L318.477 452.47L304.227 452.619L299.931 445.14L300.752 441.882L295.735 430.933ZM334.753 433.736L347.501 432.337L360.699 448.091L346.25 449.677L334.753 433.736ZM320.651 412.346L333.116 410.978L337.468 450.64L325.003 452.008L320.651 412.346ZM329.847 421.945L328.697 411.463L337.366 410.512C341.256 410.085 344.474 410.325 347.02 411.23C349.604 412.132 351.575 413.54 352.932 415.456C354.326 417.367 355.169 419.645 355.459 422.289C355.745 424.895 355.416 427.301 354.473 429.507C353.564 431.671 351.946 433.474 349.619 434.914C347.33 436.35 344.24 437.282 340.35 437.709L331.681 438.66L330.655 429.311L338.191 428.484C339.248 428.368 340.103 428.141 340.754 427.802C341.4 427.425 341.863 426.935 342.14 426.331C342.456 425.723 342.572 425.041 342.489 424.285C342.402 423.492 342.141 422.852 341.705 422.364C341.303 421.835 340.747 421.476 340.039 421.286C339.325 421.058 338.44 421.002 337.382 421.118L329.847 421.945ZM360.079 407.83L372.684 405.462L380.052 444.676L367.447 447.044L360.079 407.83ZM395.755 420.125C396.284 421.989 397.099 423.535 398.198 424.764C399.297 425.992 400.601 426.827 402.109 427.268C403.606 427.672 405.25 427.62 407.042 427.111C408.833 426.602 410.259 425.783 411.321 424.652C412.372 423.484 413.042 422.089 413.332 420.466C413.621 418.843 413.501 417.1 412.972 415.235C412.432 413.334 411.636 411.783 410.584 410.581C409.521 409.342 408.241 408.52 406.743 408.116C405.272 407.665 403.586 407.709 401.685 408.249C399.894 408.758 398.473 409.596 397.422 410.763C396.36 411.894 395.685 413.271 395.395 414.894C395.095 416.48 395.215 418.224 395.755 420.125ZM382.979 423.753C382.107 420.682 381.866 417.748 382.257 414.951C382.648 412.154 383.558 409.585 384.986 407.243C386.415 404.902 388.292 402.888 390.618 401.2C392.943 399.513 395.605 398.243 398.602 397.392C401.673 396.52 404.641 396.191 407.506 396.404C410.371 396.618 413.027 397.345 415.473 398.586C417.919 399.827 420.025 401.54 421.791 403.724C423.557 405.909 424.876 408.537 425.748 411.607C426.62 414.678 426.889 417.643 426.556 420.503C426.248 423.316 425.409 425.924 424.038 428.328C422.666 430.733 420.805 432.802 418.453 434.536C416.148 436.297 413.424 437.623 410.28 438.516C407.137 439.409 404.104 439.717 401.181 439.441C398.305 439.191 395.652 438.404 393.222 437.079C390.792 435.755 388.689 433.982 386.912 431.761C385.162 429.493 383.851 426.823 382.979 423.753Z" fill="#fff"/><path d="M98.0113 205.237L107.59 199.337L123.971 206.864L113.115 213.551L98.0113 205.237ZM78.7949 193.584L88.1608 187.815L106.517 217.615L97.1508 223.384L78.7949 193.584ZM89.6913 197.736L84.8401 189.86L91.3537 185.848C94.2769 184.048 96.9177 183.028 99.2761 182.789C101.663 182.532 103.754 182.908 105.549 183.916C107.373 184.907 108.897 186.396 110.121 188.382C111.327 190.341 111.971 192.371 112.053 194.474C112.145 196.531 111.54 198.568 110.237 200.584C108.963 202.582 106.864 204.482 103.941 206.283L97.427 210.295L93.1003 203.27L98.7624 199.783C99.557 199.293 100.149 198.792 100.537 198.279C100.908 197.737 101.09 197.174 101.083 196.591C101.105 195.991 100.941 195.407 100.591 194.839C100.224 194.243 99.7764 193.834 99.2478 193.611C98.7302 193.343 98.1547 193.267 97.5215 193.383C96.8708 193.47 96.1481 193.759 95.3534 194.248L89.6913 197.736ZM132.201 198.5L129.174 191.203L146.263 184.115L149.289 191.413L132.201 198.5ZM135.06 181.508L134.784 192.07L136.527 194.053L135.68 201.929L124.133 206.717L128.01 164.512L160.62 191.585L149.074 196.374L143.127 191.695L142.728 188.775L135.06 181.508ZM176.938 150.819L187.067 148.054L196.746 183.507L170.164 172.519L174.338 187.81L164.209 190.575L154.53 155.123L181.112 166.11L176.938 150.819ZM197.862 145.672L209.159 143.808L214.857 178.341L203.56 180.205L197.862 145.672ZM217.127 177.967L211.059 178.968L209.512 169.595L215.087 168.675C216.041 168.518 216.997 168.275 217.957 167.948C218.916 167.621 219.764 167.126 220.499 166.464C221.234 165.802 221.762 164.905 222.082 163.771C222.434 162.631 222.464 161.174 222.171 159.398C221.878 157.622 221.381 156.251 220.682 155.285C220.015 154.314 219.227 153.634 218.318 153.243C217.409 152.852 216.447 152.656 215.433 152.655C214.42 152.653 213.436 152.731 212.482 152.888L206.907 153.808L205.361 144.435L211.429 143.434C215.441 142.772 218.992 142.895 222.081 143.804C225.203 144.708 227.732 146.318 229.669 148.634C231.638 150.944 232.921 153.908 233.518 157.526C234.109 161.111 233.846 164.33 232.729 167.183C231.64 169.998 229.762 172.335 227.095 174.194C224.462 176.047 221.139 177.305 217.127 177.967ZM250.19 156.086C250.31 157.782 250.732 159.256 251.455 160.508C252.179 161.76 253.148 162.711 254.364 163.36C255.577 163.976 256.998 164.226 258.628 164.11C260.257 163.995 261.629 163.547 262.743 162.766C263.855 161.952 264.681 160.875 265.221 159.533C265.761 158.192 265.97 156.673 265.85 154.977C265.728 153.248 265.323 151.773 264.635 150.552C263.944 149.298 262.993 148.363 261.779 147.747C260.597 147.095 259.141 146.831 257.412 146.953C255.783 147.069 254.413 147.533 253.301 148.347C252.186 149.128 251.359 150.189 250.819 151.531C250.277 152.839 250.067 154.357 250.19 156.086ZM238.569 156.91C238.371 154.116 238.691 151.554 239.528 149.223C240.365 146.891 241.607 144.848 243.254 143.094C244.901 141.34 246.874 139.947 249.174 138.915C251.473 137.884 253.986 137.271 256.713 137.078C259.506 136.88 262.113 137.13 264.535 137.827C266.957 138.525 269.107 139.625 270.985 141.13C272.862 142.634 274.364 144.483 275.488 146.676C276.612 148.868 277.273 151.361 277.471 154.154C277.669 156.947 277.368 159.542 276.569 161.937C275.8 164.298 274.612 166.387 273.003 168.205C271.394 170.023 269.424 171.466 267.094 172.533C264.799 173.631 262.222 174.282 259.362 174.484C256.503 174.687 253.843 174.407 251.383 173.646C248.959 172.915 246.822 171.764 244.973 170.19C243.124 168.617 241.636 166.717 240.509 164.491C239.413 162.23 238.766 159.703 238.569 156.91ZM307.562 136.954L318.06 137.145L317.392 173.889L294.966 155.878L294.677 171.726L284.179 171.534L284.848 134.791L307.274 152.802L307.562 136.954ZM351.225 140.208L361.665 141.327L357.749 177.868L337.004 157.944L335.315 173.704L324.875 172.585L328.791 136.044L349.536 155.968L351.225 140.208ZM372.776 178.68L374.455 170.092L391.777 173.478L390.099 182.065L372.776 178.68ZM377.812 152.917L379.49 144.33L396.812 147.715L395.134 156.303L377.812 152.917ZM375.414 165.185L377.044 156.843L393.385 160.037L391.755 168.379L375.414 165.185ZM372.031 142.872L382.336 144.886L375.623 179.236L365.317 177.222L372.031 142.872ZM406.549 150.089L417.098 153.206L410.721 174.783C410.325 176.126 410.334 177.328 410.751 178.39C411.208 179.429 412.156 180.161 413.595 180.586C415.033 181.011 416.211 180.907 417.128 180.274C418.086 179.619 418.764 178.62 419.161 177.277L425.537 155.7L436.086 158.817L429.426 181.354C428.718 183.751 427.718 185.663 426.428 187.089C425.179 188.493 423.716 189.503 422.039 190.12C420.372 190.704 418.577 190.956 416.655 190.875C414.755 190.834 412.814 190.522 410.832 189.936C408.85 189.35 407.035 188.553 405.386 187.545C403.76 186.578 402.407 185.395 401.325 183.998C400.252 182.569 399.558 180.921 399.24 179.055C398.964 177.166 399.18 175.023 399.889 172.625L406.549 150.089ZM448.315 185.112L458.646 189.567L461.888 207.301L450.18 202.252L448.315 185.112ZM446.824 162.688L456.924 167.044L443.064 199.183L432.963 194.827L446.824 162.688ZM449.68 173.994L453.343 165.5L460.368 168.529C463.52 169.889 465.872 171.466 467.421 173.259C469.002 175.066 469.894 176.994 470.1 179.043C470.336 181.105 469.992 183.207 469.068 185.35C468.157 187.462 466.864 189.155 465.189 190.429C463.558 191.686 461.543 192.36 459.144 192.451C456.776 192.555 454.016 191.927 450.863 190.567L443.839 187.538L447.106 179.962L453.212 182.596C454.069 182.965 454.819 183.162 455.463 183.185C456.119 183.178 456.684 183.004 457.158 182.664C457.662 182.337 458.046 181.867 458.31 181.255C458.587 180.612 458.665 180.01 458.544 179.45C458.466 178.872 458.198 178.357 457.74 177.905C457.295 177.423 456.643 176.997 455.786 176.627L449.68 173.994ZM476.915 200.903C476.865 202.246 476.979 203.514 477.257 204.708C477.552 205.873 478.01 206.904 478.63 207.8C479.278 208.714 480.041 209.444 480.919 209.99C481.655 210.448 482.365 210.694 483.051 210.728C483.754 210.733 484.308 210.411 484.713 209.76C484.96 209.364 485.029 208.936 484.923 208.477C484.844 208.035 484.523 207.384 483.959 206.523C483.396 205.662 482.501 204.418 481.276 202.792C480.744 202.068 480.161 201.176 479.527 200.113C478.92 199.069 478.431 197.9 478.057 196.608C477.712 195.333 477.6 193.967 477.72 192.511C477.87 191.073 478.411 189.604 479.344 188.104C480.559 186.151 482.104 184.836 483.979 184.157C485.854 183.478 487.866 183.337 490.015 183.732C492.164 184.127 494.272 184.967 496.338 186.253C498.573 187.644 500.272 189.173 501.435 190.838C502.625 192.521 503.413 194.189 503.798 195.842C504.211 197.512 504.369 199.024 504.273 200.378L494.976 199.892C494.963 198.903 494.797 198.034 494.478 197.286C494.204 196.527 493.846 195.872 493.403 195.322C492.961 194.771 492.47 194.329 491.933 193.994C491.282 193.589 490.674 193.368 490.108 193.33C489.571 193.31 489.153 193.54 488.853 194.021C488.484 194.616 488.458 195.287 488.778 196.036C489.143 196.773 489.701 197.611 490.452 198.55C491.221 199.46 492.053 200.488 492.949 201.635C493.874 202.799 494.618 203.969 495.182 205.144C495.764 206.292 496.142 207.45 496.318 208.619C496.522 209.806 496.494 210.986 496.235 212.159C495.993 213.305 495.511 214.458 494.789 215.618C493.768 217.259 492.521 218.506 491.049 219.356C489.595 220.179 488.033 220.64 486.362 220.738C484.719 220.855 483.044 220.676 481.336 220.202C479.629 219.729 478.011 219.016 476.482 218.065C474.36 216.744 472.599 215.158 471.2 213.305C469.811 211.499 468.83 209.574 468.257 207.529C467.685 205.484 467.525 203.501 467.779 201.578L476.915 200.903Z" fill="#fff"/><defs><radialGradient id="paint0_radial_2004_194" cx="0" cy="0" r="1" gradientUnits="userSpaceOnUse" gradientTransform="translate(292.5 293.821) rotate(-179.896) scale(273.506 145.105)"><stop stop-color="#FC6"/><stop offset="1" stop-color="#E66119"/></radialGradient></defs></svg></svg><style>@media (prefers-color-scheme:light){:root{filter:none}}@media (prefers-color-scheme:dark){:root{filter:none}}</style></svg>